<?xml version="1.0" standalone="no"?>
<!DOCTYPE svg PUBLIC "-//W3C//DTD SVG 20010904//EN"
 "http://www.w3.org/TR/2001/REC-SVG-20010904/DTD/svg10.dtd">
<svg version="1.0" xmlns="http://www.w3.org/2000/svg"
 width="700.000000pt" height="700.000000pt" viewBox="0 0 700.000000 700.000000"
 preserveAspectRatio="xMidYMid meet">
<metadata>
Created by potrace 1.14, written by Peter Selinger 2001-2017
</metadata>
<g transform="translate(0.000000,700.000000) scale(0.100000,-0.100000)"
fill="#000000" stroke="none">
<path d="M1069 6547 c-1 -6 -3 -21 -4 -32 -1 -11 -5 -45 -8 -76 l-5 -55 306 0
c275 1 310 -1 339 -17 75 -40 97 -132 77 -317 -7 -73 -44 -311 -48 -319 -2 -3
-7 -31 -10 -61 -4 -30 -13 -93 -22 -140 -8 -47 -17 -101 -20 -120 -3 -19 -7
-42 -9 -50 -2 -8 -7 -35 -10 -60 -3 -25 -13 -82 -20 -126 -8 -45 -17 -103 -20
-130 -4 -27 -8 -56 -10 -64 -5 -16 -7 -31 -30 -170 -8 -52 -17 -104 -19 -116
-2 -12 -7 -45 -11 -75 -4 -30 -9 -57 -11 -60 -2 -4 -6 -31 -9 -60 -4 -30 -8
-60 -11 -67 -3 -11 -30 -172 -49 -297 -5 -30 -65 -396 -70 -425 -2 -14 -7 -43
-10 -65 -4 -22 -15 -90 -26 -151 -10 -61 -21 -126 -23 -145 -3 -19 -17 -104
-31 -189 -14 -85 -28 -168 -30 -185 -6 -38 -72 -430 -80 -470 -10 -51 -16 -67
-52 -142 -92 -192 -295 -291 -471 -229 -98 35 -156 96 -187 201 -11 36 -16 40
-41 37 -16 -2 -30 -5 -32 -7 -9 -8 31 -170 55 -228 56 -132 127 -208 248 -266
119 -57 178 -69 370 -76 179 -7 275 18 400 100 62 42 163 142 211 211 18 27
38 54 43 60 5 6 34 58 64 115 102 190 188 441 268 774 22 94 46 195 54 225 18
73 43 178 49 215 3 17 22 95 41 175 34 139 53 223 166 715 28 121 52 222 54
225 2 3 6 23 9 45 4 22 11 58 17 80 6 22 13 47 14 55 2 8 11 49 20 90 8 41 45
190 81 330 36 140 67 262 69 270 2 8 17 74 35 145 18 72 33 137 35 145 2 8 8
35 15 60 7 25 14 56 17 70 2 14 11 54 19 90 9 36 18 76 20 90 2 14 11 57 19
95 8 39 16 84 18 100 3 17 8 47 12 67 l7 36 296 -4 c327 -5 391 -8 472 -24 30
-6 65 -13 78 -16 33 -7 114 -39 174 -71 77 -40 196 -163 240 -248 41 -79 75
-191 86 -280 12 -110 6 -401 -12 -550 -9 -73 -18 -131 -21 -145 -2 -8 -7 -31
-10 -50 -34 -203 -134 -469 -239 -632 -194 -303 -473 -477 -826 -515 -70 -7
-172 -7 -437 2 l-212 7 -25 -27 c-15 -16 -28 -46 -33 -78 -5 -29 -9 -53 -8
-54 0 -1 20 -4 44 -7 89 -11 149 -40 206 -102 17 -18 74 -119 128 -226 120
-235 233 -453 257 -493 10 -16 33 -59 52 -95 20 -36 44 -81 55 -100 11 -19 37
-66 59 -105 21 -38 44 -79 51 -90 7 -11 18 -31 25 -45 48 -92 271 -450 396
-635 527 -779 994 -1192 1484 -1314 48 -12 106 -24 130 -27 24 -2 59 -7 78
-10 38 -5 266 -6 315 0 17 2 62 6 100 10 461 48 817 279 842 547 7 85 -10 134
-71 194 -82 82 -222 138 -382 152 -55 5 -64 3 -64 -11 0 -9 -16 -59 -35 -111
-116 -310 -309 -450 -635 -461 -126 -4 -172 3 -253 40 -273 125 -516 493 -814
1230 -50 125 -101 256 -240 626 -135 360 -142 378 -175 449 -118 258 -361 433
-743 537 -86 23 -110 33 -85 34 91 3 195 12 305 25 103 13 163 23 305 51 206
41 538 177 707 291 307 207 518 499 618 858 57 204 83 491 62 679 -50 437
-384 738 -957 860 -63 13 -137 27 -165 31 -27 3 -57 8 -65 10 -50 13 -285 24
-645 30 -170 3 -422 8 -560 10 -137 3 -367 7 -510 10 -676 13 -821 16 -962 20
-117 4 -153 2 -154 -8z"/>
</g>
</svg>
